<svg width="1087" height="911" viewBox="0 0 1087 911" fill="none" xmlns="http://www.w3.org/2000/svg">
<mask id="mask0_9_894" style="mask-type:alpha" maskUnits="userSpaceOnUse" x="0" y="0" width="1087" height="911">
<rect width="1087" height="911" fill="white"/>
</mask>
<g mask="url(#mask0_9_894)">
<path opacity="0.1" d="M1002.09 0C1036.35 23.6678 1099.68 91.0383 1078.9 171.179C1052.96 271.242 889.727 173.05 823.271 54.8879C823.122 54.6222 822.991 54.3229 822.894 54.034C801.266 -10.3052 869.497 22.0321 882.177 28.6215C894.887 35.2264 1018.67 157.418 1031.93 274.106C1041.94 362.18 938.618 284.061 876.784 225.95C873.301 222.677 867.439 225.613 867.895 230.37C881.192 369.219 816.454 629.331 451.697 665.45C-20.7818 712.235 -251.771 463.448 -288.243 433.726C-324.715 404.003 -333.557 334.651 -165.565 372.63C2.42764 410.608 598.69 622.517 326.255 999" stroke="black"/>
</g>
</svg>
