<svg width="21" height="27" viewBox="0 0 21 27" fill="none" xmlns="http://www.w3.org/2000/svg">
<path d="M10.5 0.8125C7.85709 0.815618 5.32331 1.8669 3.45448 3.73572C1.58565 5.60455 0.534374 8.13833 0.531256 10.7812C0.528826 12.9409 1.23424 15.0419 2.53951 16.7625C2.53951 16.7625 2.81138 17.1205 2.85579 17.1721L10.5 26.1875L18.1478 17.1676C18.1877 17.1196 18.4605 16.7625 18.4605 16.7625L18.4614 16.7598C19.7658 15.0398 20.4709 12.9399 20.4688 10.7812C20.4656 8.13833 19.4144 5.60455 17.5455 3.73572C15.6767 1.8669 13.1429 0.815618 10.5 0.8125ZM10.5 14.4062C9.78305 14.4062 9.08219 14.1936 8.48606 13.7953C7.88994 13.397 7.42531 12.8309 7.15094 12.1685C6.87657 11.5061 6.80479 10.7772 6.94466 10.074C7.08453 9.37087 7.42978 8.72495 7.93674 8.21799C8.44371 7.71102 9.08962 7.36577 9.7928 7.2259C10.496 7.08603 11.2248 7.15782 11.8872 7.43219C12.5496 7.70655 13.1158 8.17118 13.5141 8.76731C13.9124 9.36344 14.125 10.0643 14.125 10.7812C14.1238 11.7423 13.7415 12.6636 13.0619 13.3432C12.3824 14.0227 11.461 14.4051 10.5 14.4062Z" fill="black"/>
</svg>
