<svg width="595" height="364" viewBox="0 0 595 364" fill="none" xmlns="http://www.w3.org/2000/svg">
<path d="M43.6899 1C25.6122 13.4854 -7.80246 49.0252 3.1608 91.3014C16.8358 144.035 102.806 92.3924 137.937 30.1424C138.087 29.8769 138.218 29.5792 138.314 29.2899C149.502 -4.36422 113.638 12.6299 106.962 16.0986C100.256 19.5829 34.9427 84.0424 27.9449 145.598C22.9306 189.706 71.8112 154.8 104.691 124.922C108.228 121.708 114.24 124.71 113.97 129.481C109.739 204.125 147.576 333.577 334.1 352.043C583.397 376.723 705.276 245.482 724.52 229.802C743.764 214.123 748.43 177.538 659.79 197.572C571.151 217.607 256.541 329.395 400.288 528" stroke="black"/>
</svg>
