<?xml version="1.0" encoding="UTF-8"?>
<svg xmlns="http://www.w3.org/2000/svg" width="38" height="51" viewBox="0 0 38 51" fill="none">
  <path fill-rule="evenodd" clip-rule="evenodd" d="M9.07406 21.2268C6.66916 21.2287 4.36323 22.177 2.66212 23.8635C0.961009 25.5501 0.00362924 27.8372 0 30.2232V41.4522C0 41.5415 0.0177284 41.63 0.0521727 41.7125C0.086617 41.795 0.137103 41.8699 0.200748 41.9331C0.264392 41.9962 0.33995 42.0463 0.423106 42.0805C0.506262 42.1146 0.595387 42.1322 0.685395 42.1322H9.89367L4.26487 37.0033C4.13345 36.8853 4.03913 36.7321 3.99321 36.5622C3.94729 36.3923 3.95172 36.2129 4.00597 36.0455C4.06022 35.878 4.16199 35.7296 4.29908 35.6181C4.43618 35.5066 4.60278 35.4366 4.77892 35.4167L14.2128 34.34L18.1578 25.776C18.2309 25.6161 18.3488 25.4806 18.4975 25.3855C18.6462 25.2904 18.8194 25.2399 18.9963 25.2399C19.1732 25.2399 19.3463 25.2904 19.495 25.3855C19.6437 25.4806 19.7617 25.6161 19.8348 25.776L23.7843 34.34L33.2182 35.4167C33.3944 35.4366 33.561 35.5066 33.6981 35.6181C33.8352 35.7296 33.9369 35.878 33.9912 36.0455C34.0454 36.2129 34.0499 36.3923 34.0039 36.5622C33.958 36.7321 33.8637 36.8853 33.7323 37.0033L28.1058 42.1328H37.3146C37.4961 42.1318 37.6698 42.0598 37.7981 41.9325C37.9264 41.8052 37.999 41.6328 38 41.4528V30.2232C37.9964 27.8375 37.0392 25.5506 35.3385 23.8641C33.6378 22.1776 31.3323 21.2292 28.9277 21.2268H9.07406ZM19.4509 47.1036C19.3139 47.0258 19.1588 46.9848 19.0009 46.9846C18.8429 46.9842 18.6876 47.0253 18.5508 47.1036L11.5889 51L13.171 43.2276C13.2027 43.0727 13.1931 42.9122 13.143 42.7621C13.0929 42.612 13.0041 42.4775 12.8854 42.3719L7.00645 37.0084L14.9485 36.1018C15.1058 36.0839 15.2557 36.0258 15.3836 35.9331C15.5115 35.8404 15.6128 35.7163 15.6778 35.5731L19.0009 28.36L22.3256 35.5725C22.3906 35.7158 22.492 35.8398 22.6198 35.9325C22.7477 36.0252 22.8976 36.0833 23.055 36.1012L30.997 37.0079L25.114 42.3714C24.9953 42.4769 24.9065 42.6114 24.8565 42.7615C24.8064 42.9116 24.7967 43.0721 24.8284 43.227L26.4128 51L19.4509 47.1036ZM19.0009 0C20.8742 0.000784461 22.7053 0.552644 24.2625 1.5858C25.8198 2.61897 27.0333 4.08703 27.7497 5.80439C28.466 7.52175 28.653 9.41128 28.2871 11.2341C27.9211 13.0569 27.0186 14.7311 25.6937 16.0451C24.3687 17.359 22.6808 18.2537 20.8434 18.616C19.006 18.9783 17.1016 18.792 15.3709 18.0806C13.6402 17.3691 12.161 16.1645 11.1203 14.6191C10.0796 13.0737 9.52413 11.2568 9.52413 9.39817C9.5264 6.90562 10.5257 4.51587 12.3026 2.75374C14.0794 0.99162 16.4885 0.00120021 19.0009 0Z" fill="white"></path>
</svg>
