<svg width="847" height="446" viewBox="0 0 847 446" fill="none" xmlns="http://www.w3.org/2000/svg">
<g clip-path="url(#clip0_1349_4141)">
<mask id="mask0_1349_4141" style="mask-type:alpha" maskUnits="userSpaceOnUse" x="-9" y="17" width="908" height="412">
<path d="M839.846 316.706L687.741 347.49C681.2 348.813 676.086 341.903 679.265 336.035L770.598 167.436C774.882 159.528 764.685 151.784 758.216 158.033L557.038 352.424C550.626 358.62 540.48 351.05 544.593 343.139L668.502 104.825C672.814 96.5327 661.643 88.9815 655.555 96.0722L439.721 347.446C433.868 354.266 422.999 347.516 426.516 339.244L529.307 97.5006C532.964 88.8965 521.235 82.2331 515.718 89.7809L307.125 375.132C301.989 382.159 290.931 376.872 293.176 368.462L370.722 77.8217C372.992 69.3153 361.707 64.0733 356.671 71.2947L184.215 318.6C179.297 325.651 168.252 320.834 170.077 312.433L212.585 116.621C214.12 109.547 206.091 104.33 200.25 108.607L61.8438 209.962" stroke="black" stroke-width="100" stroke-linecap="square"/>
</mask>
<g mask="url(#mask0_1349_4141)">
<path d="M949.297 582.473L-221.609 582.473L-221.609 -229.031L949.297 -229.031L949.297 582.473Z" fill="#FFE5CC" fill-opacity="0.85"/>
</g>
</g>
<defs>
<clipPath id="clip0_1349_4141">
<rect width="846.324" height="445.104" fill="white"/>
</clipPath>
</defs>
</svg>
